<?xml version="1.0" encoding="utf-8"?>
<!-- Generator: Adobe Illustrator 25.1.0, SVG Export Plug-In . SVG Version: 6.00 Build 0)  -->
<svg version="1.1" id="圖層_1" xmlns="http://www.w3.org/2000/svg" xmlns:xlink="http://www.w3.org/1999/xlink" x="0px" y="0px"
	 viewBox="0 0 100 100" style="enable-background:new 0 0 100 100;" xml:space="preserve">
<style type="text/css">
	.st0{fill:#6BCCFC;}
	.st1{fill:#2399E2;}
</style>
<g>
	<path class="st0" d="M78.12,64.49c-13.99-8.7,17.74-5.73,13.53,7.56c-7.11,22.46-72.54,20.13-79.61,9.49
		C-4.7,56.33,19.08-14.44,22.58,34.08C24.36,58.73,98.39,77.09,78.12,64.49z"/>
	<path class="st1" d="M89.89,75.21C90.78,81.02,71.67,88.87,59.14,97C39.38,109.83,14.9,78.06,6.59,68.36
		C-7.55,51.83,8.88,2.98,20.47,41.29C27.52,64.56,86.03,49.9,89.89,75.21z"/>
	<g>
		<g>
			<path d="M50,99.99c-27.57,0-50-22.43-50-50c0-27.57,22.43-50,50-50c27.57,0,50,22.43,50,50C100,77.56,77.57,99.99,50,99.99z
				 M50,5.79c-24.37,0-44.2,19.83-44.2,44.2s19.83,44.2,44.2,44.2c24.37,0,44.2-19.83,44.2-44.2S74.37,5.79,50,5.79z"/>
		</g>
	</g>
	<path d="M67.29,48.52c-6.62,0-11.99-5.37-11.99-11.99c0-5.06,3.14-9.39,7.57-11.15c-3.64-1.8-7.74-2.81-12.08-2.81
		c-15.09,0-27.33,12.24-27.33,27.33S35.7,77.23,50.79,77.23S78.12,65,78.12,49.9c0-2.33-0.29-4.58-0.84-6.74
		C75.13,46.39,71.46,48.52,67.29,48.52z"/>
</g>
</svg>
