<?xml version="1.0" encoding="utf-8"?>
<!-- Generator: Adobe Illustrator 25.0.1, SVG Export Plug-In . SVG Version: 6.00 Build 0)  -->
<svg version="1.1" id="圖層_1" xmlns="http://www.w3.org/2000/svg" xmlns:xlink="http://www.w3.org/1999/xlink" x="0px" y="0px"
	 viewBox="0 0 190 40" style="enable-background:new 0 0 190 40;" xml:space="preserve">
<style type="text/css">
	.st0{fill:#41CDFF;}
	.st1{fill:#0099E7;}
	.st2{fill:#202951;}
</style>
<g>
	<path class="st0" d="M33.02,25.2c-5.02-3.12,6.36-2.05,4.85,2.71c-2.55,8.06-26.02,7.22-28.55,3.4c-6-9.04,2.53-34.42,3.78-17.02
		C13.74,23.13,40.28,29.71,33.02,25.2z"/>
	<path class="st1" d="M37.24,29.04c0.32,2.08-6.54,4.9-11.03,7.82c-7.09,4.6-15.87-6.79-18.84-10.27
		c-5.07-5.93,0.82-23.45,4.98-9.71C14.87,25.22,35.85,19.96,37.24,29.04z"/>
	<g>
		<path class="st2" d="M22.93,37.93C13.04,37.93,5,29.88,5,20S13.04,2.07,22.93,2.07S40.86,10.11,40.86,20S32.82,37.93,22.93,37.93z
			 M22.93,4.15C14.19,4.15,7.08,11.26,7.08,20s7.11,15.85,15.85,15.85S38.78,28.74,38.78,20S31.67,4.15,22.93,4.15z"/>
	</g>
	<path class="st2" d="M29.13,19.47c-2.38,0-4.3-1.93-4.3-4.3c0-1.81,1.12-3.37,2.71-4c-1.31-0.64-2.78-1.01-4.33-1.01
		c-5.41,0-9.8,4.39-9.8,9.8s4.39,9.8,9.8,9.8s9.8-4.39,9.8-9.8c0-0.83-0.1-1.64-0.3-2.42C31.94,18.71,30.63,19.47,29.13,19.47z"/>
	<path class="st2" d="M55.96,30.7c-5.25,0-9.51-4.29-9.51-9.58c0-5.27,4.25-9.56,9.51-9.56c5.23,0,9.48,4.29,9.48,9.58
		C65.44,26.41,61.19,30.7,55.96,30.7z M55.96,14.61c-3.58,0-6.48,2.92-6.48,6.51c0,3.61,2.9,6.53,6.48,6.53
		c3.55,0,6.45-2.92,6.45-6.53C62.41,17.54,59.51,14.61,55.96,14.61z"/>
	<path class="st2" d="M85.27,13.15v16.06c0,0.86-0.7,1.54-1.53,1.54c-0.85,0-1.53-0.68-1.53-1.54V17.84l-3.9,5.4
		c-0.28,0.38-0.73,0.63-1.23,0.63c-0.48,0-0.93-0.25-1.23-0.63l-3.9-5.4v11.37c0,0.86-0.68,1.54-1.53,1.54
		c-0.83,0-1.5-0.68-1.5-1.54V13.15V13.1c0-0.03,0-0.05,0-0.08v-0.08c0-0.03,0.03-0.05,0.03-0.08V12.8c0.03-0.03,0.03-0.05,0.03-0.08
		c0-0.03,0.02-0.05,0.02-0.08s0.03-0.03,0.03-0.05s0.03-0.05,0.03-0.08c0.03-0.03,0.03-0.05,0.03-0.08l0.05-0.05
		c0-0.03,0.03-0.05,0.03-0.08l0.05-0.05c0-0.03,0.03-0.05,0.05-0.08c0-0.03,0.02-0.03,0.02-0.05l0.08-0.05
		c0-0.03,0.03-0.05,0.05-0.05c0-0.03,0.03-0.05,0.05-0.05l0.05-0.05c0.03-0.03,0.03-0.03,0.05-0.03c0-0.03,0-0.03,0.03-0.03
		c0-0.03,0.03-0.03,0.05-0.05c0.03,0,0.05-0.03,0.08-0.03c0.03-0.03,0.05-0.03,0.05-0.05c0.03,0,0.05,0,0.07-0.03
		c0.03,0,0.05-0.03,0.08-0.03c0.03,0,0.05-0.03,0.08-0.03c0.03,0,0.03,0,0.05-0.03c0.03,0,0.05,0,0.1-0.03h0.05
		c0.03,0,0.05,0,0.1-0.03h0.05c0.02,0,0.05,0,0.1,0c0.03,0,0.03,0,0.05,0h0.1c0,0,0.02,0,0.05,0.03h0.08c0.03,0,0.05,0,0.08,0.03
		h0.08c0.02,0.03,0.05,0.03,0.07,0.03c0.03,0.03,0.05,0.03,0.08,0.03c0.03,0.03,0.03,0.03,0.05,0.03l0.08,0.05
		c0.02,0,0.05,0,0.05,0.03c0.03,0,0.05,0.03,0.08,0.05c0.03,0,0.05,0.03,0.05,0.03l0.08,0.05c0.03,0.03,0.03,0.03,0.05,0.05
		c0.03,0,0.05,0.03,0.08,0.05c0,0.03,0.03,0.03,0.03,0.05c0.03,0.03,0.05,0.03,0.05,0.05c0.03,0.03,0.05,0.05,0.05,0.08
		c0.03,0,0.03,0,0.05,0.03l5.4,7.49l5.43-7.49c0-0.03,0-0.03,0.03-0.03c0-0.03,0.03-0.05,0.05-0.08c0-0.03,0.03-0.03,0.05-0.05
		c0-0.03,0.03-0.03,0.05-0.05c0.03-0.03,0.03-0.05,0.05-0.05l0.05-0.05c0.03-0.03,0.05-0.03,0.08-0.05c0.02,0,0.02-0.03,0.05-0.03
		c0.03-0.03,0.05-0.05,0.08-0.05c0.03-0.03,0.03-0.03,0.05-0.03l0.08-0.05c0.03,0,0.05,0,0.07-0.03c0.03,0,0.03,0,0.05-0.03
		c0.03,0,0.05,0,0.08-0.03h0.08c0.02-0.03,0.05-0.03,0.07-0.03h0.08c0.03-0.03,0.05-0.03,0.08-0.03h0.07c0.03,0,0.03,0,0.05,0h0.03
		c0.03,0,0.05,0,0.1,0h0.05c0.03,0.03,0.05,0.03,0.07,0.03h0.08c0.03,0.03,0.05,0.03,0.08,0.03c0.03,0.03,0.05,0.03,0.05,0.03
		c0.05,0,0.07,0.03,0.1,0.03c0,0,0.03,0.03,0.05,0.03c0.03,0.03,0.05,0.03,0.08,0.03l0.07,0.05c0,0,0.03,0.03,0.05,0.03l0.08,0.05
		c0,0,0,0,0.03,0.03l0.03,0.03c0.03,0,0.05,0.03,0.05,0.05c0.03,0,0.05,0.03,0.07,0.05l0.05,0.05c0,0.03,0.03,0.03,0.05,0.05
		c0,0.03,0.03,0.03,0.03,0.05c0.03,0.03,0.05,0.05,0.05,0.08l0.05,0.05c0,0.03,0.03,0.05,0.05,0.08c0,0.03,0,0.03,0.03,0.05
		c0,0.03,0.03,0.05,0.03,0.08c0.03,0.03,0.03,0.05,0.03,0.08c0.03,0.03,0.03,0.03,0.03,0.05c0.03,0.03,0.03,0.05,0.03,0.08
		c0,0.03,0.03,0.05,0.03,0.08s0,0.05,0.03,0.08v0.08c0,0.03,0,0.05,0,0.08v0.08C85.25,13.12,85.27,13.12,85.27,13.15z"/>
	<path class="st2" d="M105.54,29.21c0,0.03-0.03,0.03-0.03,0.03v0.1c0,0,0,0.03,0,0.05v0.08c-0.03,0.03-0.03,0.05-0.03,0.08
		c0,0.03,0,0.05-0.02,0.08v0.08c-0.03,0.03-0.03,0.05-0.03,0.05l-0.05,0.08c0,0.03,0,0.05-0.03,0.08c0,0.03-0.03,0.05-0.03,0.08
		l-0.05,0.08c0,0-0.03,0.03-0.03,0.05c-0.03,0.03-0.05,0.03-0.05,0.05c-0.03,0.03-0.03,0.05-0.05,0.05c0,0.03-0.03,0.05-0.05,0.08
		c-0.03,0-0.03,0.03-0.05,0.05c-0.03,0-0.03,0.03-0.05,0.05c-0.03,0-0.05,0.03-0.05,0.05h-0.02c0,0.03-0.03,0.03-0.03,0.03
		c-0.05,0.05-0.13,0.08-0.2,0.13c-0.07,0.03-0.13,0.08-0.2,0.1h-0.03c-0.07,0.03-0.15,0.05-0.23,0.05h-0.05
		c-0.05,0.03-0.13,0.03-0.2,0.03c-0.05,0-0.13,0-0.18,0l-0.03-0.03c-0.05,0-0.1,0-0.13,0c-0.03-0.03-0.03-0.03-0.05-0.03
		c-0.05,0-0.07-0.03-0.13-0.03c0,0-0.03-0.03-0.05-0.03s-0.05-0.03-0.08-0.05c-0.03,0-0.05,0-0.07-0.03c-0.03,0-0.05-0.03-0.08-0.05
		c-0.03,0-0.05,0-0.05-0.03c-0.05-0.03-0.08-0.03-0.1-0.05c0-0.03-0.03-0.03-0.05-0.05c-0.03-0.03-0.08-0.05-0.1-0.1
		c-0.03,0-0.03-0.03-0.03-0.03c-0.05-0.03-0.08-0.08-0.1-0.1v-0.03l-9.56-12.51v11.57c0,0.86-0.7,1.54-1.53,1.54
		c-0.85,0-1.53-0.68-1.53-1.54V13.15v-0.03c0-0.03,0-0.05,0-0.1c0.03,0,0.03-0.03,0.03-0.05V12.9c0-0.03,0-0.05,0.03-0.08v-0.08
		c0.03-0.03,0.03-0.05,0.03-0.08s0.02-0.05,0.02-0.05c0-0.03,0.03-0.05,0.03-0.08l0.05-0.08c0-0.03,0-0.05,0.03-0.08
		c0-0.03,0.03-0.05,0.05-0.08c0,0,0-0.03,0.03-0.05l0.05-0.05c0-0.03,0.02-0.05,0.02-0.05l0.08-0.08c0,0,0.03-0.03,0.05-0.05
		l0.05-0.05c0,0,0.03-0.03,0.05-0.05h0.03c0-0.03,0.02-0.03,0.02-0.03c0.03-0.03,0.05-0.05,0.08-0.05c0.03-0.03,0.05-0.03,0.05-0.05
		c0.03,0,0.05-0.03,0.08-0.03c0.03-0.03,0.05-0.03,0.07-0.03l0.08-0.05c0.03,0,0.03,0,0.05-0.03c0.03,0,0.05,0,0.08-0.03h0.07
		c0.03-0.03,0.05-0.03,0.08-0.03h0.08c0.03-0.03,0.05-0.03,0.08-0.03h0.07c0.03,0,0.03,0,0.05,0h0.03c0.03,0,0.05,0,0.08,0h0.07
		c0.03,0.03,0.05,0.03,0.08,0.03h0.08c0.03,0.03,0.05,0.03,0.05,0.03l0.1,0.03c0,0,0.03,0.03,0.05,0.03c0.03,0,0.05,0.03,0.08,0.03
		s0.05,0.03,0.08,0.03l0.05,0.05c0.03,0,0.05,0.03,0.08,0.03c0.03,0.03,0.05,0.03,0.05,0.05c0.03,0,0.05,0.03,0.08,0.05
		c0.02,0,0.02,0.03,0.05,0.03l0.05,0.05c0.03,0.03,0.05,0.05,0.05,0.05l0.05,0.05c0.03,0.03,0.05,0.05,0.05,0.08
		c0.03,0,0.03,0,0.03,0.03l9.56,12.51V13.15c0-0.86,0.68-1.54,1.53-1.54c0.83,0,1.53,0.68,1.53,1.54V29.21z"/>
	<path class="st2" d="M124.83,22.73v4.99h7.16c0.83,0,1.5,0.68,1.5,1.51c0,0.83-0.68,1.49-1.5,1.49h-8.66
		c-0.83,0-1.48-0.66-1.48-1.49V13.1c0-0.83,0.65-1.51,1.48-1.51h8.66c0.83,0,1.5,0.68,1.5,1.51c0,0.83-0.68,1.51-1.5,1.51h-7.16
		v5.12h7.16c0.83,0,1.5,0.66,1.5,1.51c0,0.83-0.68,1.49-1.5,1.49H124.83z"/>
	<path class="st2" d="M152.49,14.49l-6.3,8.02v6.78c0,0.83-0.65,1.49-1.48,1.49c-0.83,0-1.5-0.66-1.5-1.49V22.5l-6.18-8.25
		c-0.5-0.66-0.38-1.61,0.28-2.12c0.68-0.5,1.6-0.35,2.1,0.3l5.33,7.09l5.4-6.91c0.5-0.66,1.45-0.76,2.1-0.25
		C152.89,12.9,152.99,13.83,152.49,14.49z"/>
	<path class="st2" d="M159.26,22.73v4.99h7.16c0.83,0,1.5,0.68,1.5,1.51c0,0.83-0.68,1.49-1.5,1.49h-8.66
		c-0.83,0-1.48-0.66-1.48-1.49V13.1c0-0.83,0.65-1.51,1.48-1.51h8.66c0.83,0,1.5,0.68,1.5,1.51c0,0.83-0.68,1.51-1.5,1.51h-7.16
		v5.12h7.16c0.83,0,1.5,0.66,1.5,1.51c0,0.83-0.68,1.49-1.5,1.49H159.26z"/>
	<path class="st2" d="M184.99,25.63c-0.18,2.95-2.83,4.66-5.2,5.02c-0.4,0.05-0.83,0.08-1.23,0.08c-2.45,0-4.88-1.03-6.38-2.82
		c-0.53-0.63-0.45-1.56,0.18-2.12c0.63-0.53,1.55-0.45,2.08,0.18c1.1,1.29,3.08,1.99,4.93,1.71c1.23-0.18,2.58-0.93,2.65-2.22
		c0.08-1.13-0.8-2.19-2.03-2.47c-0.5-0.13-1.08-0.15-1.65-0.18c-1.3-0.08-2.75-0.15-4.1-1.08c-1.83-1.26-2.73-3.56-2.18-5.57
		c0.6-2.19,2.6-3.88,4.98-4.24c2.3-0.33,4.75,0.33,6.53,1.71c0.63,0.5,0.75,1.46,0.25,2.12c-0.5,0.63-1.45,0.76-2.1,0.25
		c-1.13-0.91-2.75-1.34-4.28-1.11c-1.18,0.18-2.23,1.01-2.5,2.07c-0.25,0.88,0.3,1.82,1,2.29c0.65,0.45,1.53,0.5,2.55,0.55
		c0.7,0.05,1.4,0.08,2.15,0.25C183.27,20.64,185.14,23.06,184.99,25.63z"/>
	<g>
		<path class="st1" d="M111.62,20.58c-0.87,0.26-1.57,0.76-2.13,1.46c0.03-0.12,0.06-0.24,0.09-0.36c0.24-0.8,0.6-1.53,1.12-2.17
			c0.39-0.48,0.86-0.89,1.42-1.17c0.33-0.16,0.68-0.26,1.05-0.32c0.16-0.03,0.34-0.02,0.5-0.02c0.2,0,0.39-0.01,0.58,0.03
			c0.73,0.17,1.18,0.62,1.36,1.35c0.03,0.11,0.04,0.22,0.04,0.33c0,2.61,0,5.21,0,7.82c0,0.13-0.01,0.13,0.12,0.09
			c0.79-0.26,1.44-0.73,1.96-1.37c0.01-0.02,0.03-0.03,0.05-0.05c-0.01,0.06-0.02,0.13-0.04,0.19c-0.23,0.86-0.61,1.66-1.18,2.35
			c-0.46,0.56-1.01,1.02-1.7,1.27c-0.26,0.09-0.52,0.16-0.79,0.2c-0.22,0.04-0.45,0.02-0.68,0.02c-0.17,0-0.34-0.02-0.51-0.07
			c-0.69-0.22-1.11-0.69-1.24-1.41c-0.02-0.11-0.02-0.22-0.02-0.32c0-2.58,0-5.17,0-7.75C111.62,20.66,111.62,20.63,111.62,20.58z"
			/>
		<path class="st1" d="M113.28,11.76c1.4-0.01,2.56,1.15,2.57,2.57c0.01,1.43-1.15,2.6-2.56,2.61c-1.41,0.01-2.58-1.16-2.58-2.59
			C110.72,12.93,111.87,11.75,113.28,11.76z"/>
	</g>
</g>
</svg>
